<?xml version="1.0" encoding="UTF-8" standalone="no"?>
<svg
   xmlns:dc="http://purl.org/dc/elements/1.1/"
   xmlns:cc="http://creativecommons.org/ns#"
   xmlns:rdf="http://www.w3.org/1999/02/22-rdf-syntax-ns#"
   xmlns:svg="http://www.w3.org/2000/svg"
   xmlns="http://www.w3.org/2000/svg"
   xmlns:sodipodi="http://sodipodi.sourceforge.net/DTD/sodipodi-0.dtd"
   xmlns:inkscape="http://www.inkscape.org/namespaces/inkscape"
   viewBox="0 0 20 20"
   width="100"
   height="100"
   version="1.1"
   id="svg566"
   sodipodi:docname="image-jpeg.svg"
   inkscape:version="1.0.2 (1.0.2+r75+1)">
  <metadata
     id="metadata572">
    <rdf:RDF>
      <cc:Work
         rdf:about="">
        <dc:format>image/svg+xml</dc:format>
        <dc:type
           rdf:resource="http://purl.org/dc/dcmitype/StillImage" />
        <dc:title></dc:title>
      </cc:Work>
    </rdf:RDF>
  </metadata>
  <defs
     id="defs570" />
  <sodipodi:namedview
     pagecolor="#ffffff"
     bordercolor="#666666"
     borderopacity="1"
     objecttolerance="10"
     gridtolerance="10"
     guidetolerance="10"
     inkscape:pageopacity="0"
     inkscape:pageshadow="2"
     inkscape:window-width="1257"
     inkscape:window-height="793"
     id="namedview568"
     showgrid="false"
     inkscape:zoom="2.7459313"
     inkscape:cx="37.975048"
     inkscape:cy="53.228063"
     inkscape:window-x="902"
     inkscape:window-y="508"
     inkscape:window-maximized="0"
     inkscape:current-layer="svg566" />
  <path
     fill="none"
     d="M 0,0 H 24 V 24 H 0 Z"
     id="path562" />
  <path
     d="M 18,2.2222222 H 2 V 17.777778 L 11.292,7.451111 a 1,1.1111111 0 0 1 1.414,0 L 18,13.344444 Z M 0,1.1033333 A 1,1.1111111 0 0 1 0.992,0 H 19.008 C 19.556,0 20,0.4944444 20,1.1033333 V 18.896667 A 1,1.1111111 0 0 1 19.008,20 H 0.992 A 0.993,1.1033333 0 0 1 0,18.896667 Z M 6,8.888889 A 2.0000001,2.2222223 0 1 1 6,4.4444444 2.0000001,2.2222223 0 0 1 6,8.888889 Z"
     fill="rgba(193,182,133,1)"
     id="path564"
     style="stroke-width:1.05409" />
</svg>
