<?xml version="1.0" encoding="UTF-8" standalone="no"?>
<svg
   xmlns:dc="http://purl.org/dc/elements/1.1/"
   xmlns:cc="http://creativecommons.org/ns#"
   xmlns:rdf="http://www.w3.org/1999/02/22-rdf-syntax-ns#"
   xmlns:svg="http://www.w3.org/2000/svg"
   xmlns="http://www.w3.org/2000/svg"
   xmlns:sodipodi="http://sodipodi.sourceforge.net/DTD/sodipodi-0.dtd"
   xmlns:inkscape="http://www.inkscape.org/namespaces/inkscape"
   viewBox="0 0 20 18"
   width="100"
   height="90"
   version="1.1"
   id="svg794"
   sodipodi:docname="text-plain.svg"
   inkscape:version="1.0.2 (1.0.2+r75+1)">
  <metadata
     id="metadata800">
    <rdf:RDF>
      <cc:Work
         rdf:about="">
        <dc:format>image/svg+xml</dc:format>
        <dc:type
           rdf:resource="http://purl.org/dc/dcmitype/StillImage" />
        <dc:title></dc:title>
      </cc:Work>
    </rdf:RDF>
  </metadata>
  <defs
     id="defs798" />
  <sodipodi:namedview
     pagecolor="#ffffff"
     bordercolor="#666666"
     borderopacity="1"
     objecttolerance="10"
     gridtolerance="10"
     guidetolerance="10"
     inkscape:pageopacity="0"
     inkscape:pageshadow="2"
     inkscape:window-width="1174"
     inkscape:window-height="662"
     id="namedview796"
     showgrid="false"
     inkscape:zoom="2.7459313"
     inkscape:cx="-74.111579"
     inkscape:cy="51.734761"
     inkscape:window-x="697"
     inkscape:window-y="200"
     inkscape:window-maximized="0"
     inkscape:current-layer="svg794"
     inkscape:document-rotation="0" />
  <path
     fill="none"
     d="M 0,0 H 24 V 24 H 0 Z"
     id="path790" />
  <path
     d="M 19.999973,6.3 V 17.0937 A 1.1111096,0.9 0 0 1 18.896641,18 H 1.1033318 A 1.1033318,0.8937 0 0 1 0,17.1072 V 0.8928 C 0,0.4095 0.49666599,0 1.1088874,0 H 12.222205 v 5.4 a 1.1111096,0.9 0 0 0 1.11111,0.9 z m 0,-1.8 H 14.444425 V 0.0027 Z M 5.5555479,4.5 V 6.3 H 8.8888767 V 4.5 Z m 0,3.6 V 9.9 H 14.444425 V 8.1 Z m 0,3.6 v 1.8 h 8.8888771 v -1.8 z"
     fill="rgba(193,182,133,1)"
     id="path792"
     style="stroke-width:0.999998" />
</svg>
