<?xml version="1.0" encoding="UTF-8" standalone="no"?>
<svg
   xmlns:dc="http://purl.org/dc/elements/1.1/"
   xmlns:cc="http://creativecommons.org/ns#"
   xmlns:rdf="http://www.w3.org/1999/02/22-rdf-syntax-ns#"
   xmlns:svg="http://www.w3.org/2000/svg"
   xmlns="http://www.w3.org/2000/svg"
   xmlns:sodipodi="http://sodipodi.sourceforge.net/DTD/sodipodi-0.dtd"
   xmlns:inkscape="http://www.inkscape.org/namespaces/inkscape"
   viewBox="0 0 20 18"
   width="100"
   height="90"
   version="1.1"
   id="svg260"
   sodipodi:docname="application-octet_stream.svg"
   inkscape:version="1.0.2 (1.0.2+r75+1)">
  <metadata
     id="metadata266">
    <rdf:RDF>
      <cc:Work
         rdf:about="">
        <dc:format>image/svg+xml</dc:format>
        <dc:type
           rdf:resource="http://purl.org/dc/dcmitype/StillImage" />
        <dc:title></dc:title>
      </cc:Work>
    </rdf:RDF>
  </metadata>
  <defs
     id="defs264" />
  <sodipodi:namedview
     pagecolor="#ffffff"
     bordercolor="#666666"
     borderopacity="1"
     objecttolerance="10"
     gridtolerance="10"
     guidetolerance="10"
     inkscape:pageopacity="0"
     inkscape:pageshadow="2"
     inkscape:window-width="1188"
     inkscape:window-height="860"
     id="namedview262"
     showgrid="false"
     inkscape:zoom="3.8833333"
     inkscape:cx="1.8244426"
     inkscape:cy="46.613279"
     inkscape:window-x="449"
     inkscape:window-y="199"
     inkscape:window-maximized="0"
     inkscape:current-layer="svg260"
     inkscape:document-rotation="0" />
  <path
     fill="none"
     d="M 0,0 H 24 V 24 H 0 Z"
     id="path256" />
  <path
     d="M 14.444444,0 20,4.5 V 17.1072 A 1.1033333,0.8937 0 0 1 18.896667,18 H 1.1033333 A 1.1111111,0.9 0 0 1 0,17.1072 V 0.8928 C 0,0.3996 0.49444444,0 1.1033333,0 Z M 8.8888889,11.7 v 1.8 H 11.111111 V 11.7 Z M 11.111111,10.2195 A 3.8911111,3.1518 0 0 0 10,4.05 3.89,3.1509 0 0 0 6.1855556,6.5817 l 2.18,0.3537 A 1.6666667,1.35 0 1 1 10,8.55 1.1111111,0.9 0 0 0 8.8888889,9.45 v 1.35 h 2.2222221 z"
     fill="rgba(193,182,133,1)"
     id="path258"
     style="stroke-width:0.999998" />
</svg>
